<svg width="41" height="40" viewBox="0 0 41 40" fill="none" xmlns="http://www.w3.org/2000/svg">
<path d="M18.098 2.63099C17.9191 1.23546 19.0063 0 20.4133 0C21.7264 0 22.7411 1.15309 22.5741 2.45559L20.3248 20L18.098 2.63099Z" fill="#FCD043"/>
<path d="M37.6923 17.7729C39.0878 17.5939 40.3232 18.6811 40.3232 20.0881C40.3232 21.4012 39.1701 22.4159 37.8677 22.2489L20.3232 19.9996L37.6923 17.7729Z" fill="#FCD043"/>
<path d="M31.0842 6.20241C31.9445 5.08912 33.5868 4.98427 34.5817 5.97913C35.5102 6.90767 35.4123 8.44053 34.3733 9.24346L20.377 20.0587L31.0842 6.20241Z" fill="#FCD043"/>
<path d="M34.24 30.7687C35.3533 31.629 35.4581 33.2714 34.4633 34.2662C33.5347 35.1948 32.0019 35.0969 31.1989 34.0578L20.3836 20.0616L34.24 30.7687Z" fill="#FCD043"/>
<path d="M22.5484 37.369C22.7274 38.7645 21.6402 40 20.2332 40C18.9201 40 17.9054 38.8469 18.0724 37.5444L20.3216 20L22.5484 37.369Z" fill="#FCD043"/>
<path d="M2.95423 22.2271C1.5587 22.4061 0.323242 21.3189 0.323243 19.9119C0.323243 18.5988 1.47634 17.5841 2.77883 17.7511L20.3232 20.0004L2.95423 22.2271Z" fill="#FCD043"/>
<path d="M9.67168 33.9167C8.81141 35.03 7.16905 35.1349 6.17419 34.14C5.24565 33.2115 5.34351 31.6786 6.38259 30.8757L20.3788 20.0604L9.67168 33.9167Z" fill="#FCD043"/>
<path d="M6.5237 9.35137C5.4104 8.49109 5.30556 6.84874 6.30042 5.85388C7.22896 4.92534 8.76182 5.0232 9.56475 6.06228L20.38 20.0585L6.5237 9.35137Z" fill="#FCD043"/>
</svg>
